<svg xmlns="http://www.w3.org/2000/svg" xmlns:xlink="http://www.w3.org/1999/xlink" version="1.1" x="0px" y="0px" viewBox="0 0 540 675" style="enable-background:new 0 0 540 540;" xml:space="preserve">
    <g>
        <g>
            <path d="M195,405c-8.271,0-15,6.729-15,15s6.729,15,15,15h107.58c-1.665-4.695-2.58-9.741-2.58-15s0.915-10.305,2.58-15H195z"/>
            <path d="M440,15H100c-46.869,0-85,38.131-85,85v340c0,46.869,38.131,85,85,85h340c46.869,0,85-38.131,85-85V100    C525,53.131,486.869,15,440,15z M345,465H195c-24.813,0-45-20.187-45-45s20.187-45,45-45h150c24.813,0,45,20.187,45,45    S369.813,465,345,465z M403.883,231.509c-11.08,63.64-66.602,111.702-132.988,111.702c-74.439,0-135-60.561-135-135    c0-66.447,48.113-121.917,111.702-132.988c11.847-2.058,21.195,10.001,16.241,20.957    c-26.808,59.292,16.764,127.031,82.057,127.031c12.915,0,25.374-2.673,37.031-7.943    C393.879,210.315,405.946,219.659,403.883,231.509z"/>
            <circle cx="345" cy="420" r="15"/>
            <path d="M227.676,112.44c-36.937,16.584-61.781,53.569-61.781,95.771c0,57.897,47.103,105,105,105    c42.201,0,79.187-24.845,95.771-61.781C284.556,265.737,213.437,194.153,227.676,112.44z"/>
        </g>
    </g>
</svg>