<svg xmlns="http://www.w3.org/2000/svg" xmlns:xlink="http://www.w3.org/1999/xlink" version="1.1" x="0px" y="0px" viewBox="0 0 540 675" style="enable-background:new 0 0 540 540;" xml:space="preserve">
    <g>
        <g>
            <path d="M440,15H100c-46.869,0-85,38.131-85,85v340c0,46.869,38.131,85,85,85h340c46.869,0,85-38.131,85-85V100    C525,53.131,486.869,15,440,15z M495,440c0,30.327-24.673,55-55,55H100c-30.327,0-55-24.673-55-55V100c0-30.327,24.673-55,55-55    h340c30.327,0,55,24.673,55,55V440z"/>
            <path d="M382.926,215.268c-11.657,5.271-24.116,7.943-37.031,7.943c-65.332,0-108.845-67.78-82.057-127.031    c4.952-10.952-4.388-23.016-16.241-20.957c-63.64,11.08-111.702,66.602-111.702,132.988c0,74.439,60.561,135,135,135    c66.447,0,121.917-48.113,132.988-111.702C405.945,219.666,393.885,210.312,382.926,215.268z M270.895,313.211    c-57.897,0-105-47.103-105-105c0-42.201,24.845-79.187,61.781-95.771c-14.248,81.766,56.942,153.286,138.989,138.989    C350.081,288.366,313.096,313.211,270.895,313.211z"/>
            <path d="M345,375H195c-24.813,0-45,20.187-45,45s20.187,45,45,45h150c24.813,0,45-20.187,45-45S369.813,375,345,375z M180,420    c0-8.271,6.729-15,15-15h107.58c-1.665,4.695-2.58,9.741-2.58,15s0.915,10.305,2.58,15H195C186.729,435,180,428.271,180,420z     M345,435c-8.271,0-15-6.729-15-15s6.729-15,15-15s15,6.729,15,15S353.271,435,345,435z"/>
        </g>
    </g>
</svg>